{
  "accessors": [
    {
      "bufferView": 0,
      "componentType": 5125,
      "count": 13488,
      "type": "SCALAR"
    },
    {
      "bufferView": 1,
      "componentType": 5126,
      "count": 4988,
      "max": [
        346.345947265625,
        250.0,
        -0.57720947265625
      ],
      "min": [
        -452.345947265625,
        7.62939453125e-06,
        -1398.46606445312
      ],
      "type": "VEC3"
    },
    {
      "bufferView": 2,
      "componentType": 5126,
      "count": 4988,
      "type": "VEC3"
    },
    {
      "bufferView": 3,
      "componentType": 5126,
      "count": 4988,
      "type": "VEC4"
    },
    {
      "bufferView": 4,
      "componentType": 5126,
      "count": 4988,
      "type": "VEC2"
    }
  ],
  "asset": {
    "generator": "Adobe Substance 3D Painter 12.1.1",
    "version": "2.0"
  },
  "bufferViews": [
    {
      "buffer": 0,
      "byteLength": 53952,
      "target": 34963
    },
    {
      "buffer": 0,
      "byteLength": 59856,
      "byteOffset": 53952,
      "target": 34962
    },
    {
      "buffer": 0,
      "byteLength": 59856,
      "byteOffset": 113808,
      "target": 34962
    },
    {
      "buffer": 0,
      "byteLength": 79808,
      "byteOffset": 173664,
      "target": 34962
    },
    {
      "buffer": 0,
      "byteLength": 39904,
      "byteOffset": 253472,
      "target": 34962
    }
  ],
  "buffers": [
    {
      "byteLength": 293376,
      "uri": "APT_walls.bin"
    }
  ],
  "images": [
    {
      "uri": "APT_WALLS_baseColor.png"
    },
    {
      "uri": "APT_WALLS_occlusionRoughnessMetallic.png"
    },
    {
      "uri": "APT_WALLS_normal.png"
    },
    {
      "uri": "APT_WALLS_emissive.png"
    }
  ],
  "materials": [
    {
      "alphaMode": "OPAQUE",
      "emissiveFactor": [
        1.0,
        1.0,
        1.0
      ],
      "emissiveTexture": {
        "index": 3
      },
      "name": "APT_WALLS",
      "normalTexture": {
        "index": 2
      },
      "occlusionTexture": {
        "index": 1
      },
      "pbrMetallicRoughness": {
        "baseColorTexture": {
          "index": 0
        },
        "metallicRoughnessTexture": {
          "index": 1
        }
      }
    }
  ],
  "meshes": [
    {
      "name": "APT_Walls",
      "primitives": [
        {
          "attributes": {
            "NORMAL": 2,
            "POSITION": 1,
            "TANGENT": 3,
            "TEXCOORD_0": 4
          },
          "indices": 0,
          "material": 0,
          "mode": 4
        }
      ]
    }
  ],
  "nodes": [
    {
      "children": [
        1
      ],
      "name": "RootNode",
      "scale": [
        0.00999999977648258,
        0.00999999977648258,
        0.00999999977648258
      ]
    },
    {
      "children": [
        2
      ],
      "name": "APT_Walls"
    },
    {
      "mesh": 0,
      "name": "APT_Walls"
    }
  ],
  "samplers": [
    {
      "magFilter": 9729,
      "minFilter": 9985,
      "wrapS": 10497,
      "wrapT": 10497
    }
  ],
  "scene": 0,
  "scenes": [
    {
      "name": "Scene",
      "nodes": [
        0
      ]
    }
  ],
  "textures": [
    {
      "sampler": 0,
      "source": 0
    },
    {
      "sampler": 0,
      "source": 1
    },
    {
      "sampler": 0,
      "source": 2
    },
    {
      "sampler": 0,
      "source": 3
    }
  ]
}