{
  "accessors": [
    {
      "bufferView": 0,
      "componentType": 5125,
      "count": 13518,
      "type": "SCALAR"
    },
    {
      "bufferView": 1,
      "componentType": 5126,
      "count": 2896,
      "max": [
        1.83002889156342,
        0.658740997314453,
        0.404218792915344
      ],
      "min": [
        -1.83739411830902,
        -0.120730876922607,
        -0.45311176776886
      ],
      "type": "VEC3"
    },
    {
      "bufferView": 2,
      "componentType": 5126,
      "count": 2896,
      "type": "VEC3"
    },
    {
      "bufferView": 3,
      "componentType": 5126,
      "count": 2896,
      "type": "VEC4"
    },
    {
      "bufferView": 4,
      "componentType": 5126,
      "count": 2896,
      "type": "VEC2"
    },
    {
      "bufferView": 5,
      "componentType": 5125,
      "count": 1860,
      "type": "SCALAR"
    },
    {
      "bufferView": 6,
      "componentType": 5126,
      "count": 608,
      "max": [
        1.22793126106262,
        0.804758191108704,
        0.172315999865532
      ],
      "min": [
        -1.18691575527191,
        -0.817676663398743,
        -0.466869950294495
      ],
      "type": "VEC3"
    },
    {
      "bufferView": 7,
      "componentType": 5126,
      "count": 608,
      "type": "VEC3"
    },
    {
      "bufferView": 8,
      "componentType": 5126,
      "count": 608,
      "type": "VEC4"
    },
    {
      "bufferView": 9,
      "componentType": 5126,
      "count": 608,
      "type": "VEC2"
    },
    {
      "bufferView": 10,
      "componentType": 5125,
      "count": 3144,
      "type": "SCALAR"
    },
    {
      "bufferView": 11,
      "componentType": 5126,
      "count": 868,
      "max": [
        0.409035384654999,
        0.469602584838867,
        0.581429004669189
      ],
      "min": [
        -0.408226370811462,
        -0.496012210845947,
        -0.816935002803802
      ],
      "type": "VEC3"
    },
    {
      "bufferView": 12,
      "componentType": 5126,
      "count": 868,
      "type": "VEC3"
    },
    {
      "bufferView": 13,
      "componentType": 5126,
      "count": 868,
      "type": "VEC4"
    },
    {
      "bufferView": 14,
      "componentType": 5126,
      "count": 868,
      "type": "VEC2"
    },
    {
      "bufferView": 15,
      "componentType": 5125,
      "count": 3144,
      "type": "SCALAR"
    },
    {
      "bufferView": 16,
      "componentType": 5126,
      "count": 868,
      "max": [
        0.409035205841064,
        0.469601392745972,
        0.581428945064545
      ],
      "min": [
        -0.408226490020752,
        -0.496013164520264,
        -0.816934943199158
      ],
      "type": "VEC3"
    },
    {
      "bufferView": 17,
      "componentType": 5126,
      "count": 868,
      "type": "VEC3"
    },
    {
      "bufferView": 18,
      "componentType": 5126,
      "count": 868,
      "type": "VEC4"
    },
    {
      "bufferView": 19,
      "componentType": 5126,
      "count": 868,
      "type": "VEC2"
    }
  ],
  "asset": {
    "generator": "Adobe Substance 3D Painter 12.1.1",
    "version": "2.0"
  },
  "bufferViews": [
    {
      "buffer": 0,
      "byteLength": 54072,
      "target": 34963
    },
    {
      "buffer": 0,
      "byteLength": 34752,
      "byteOffset": 54072,
      "target": 34962
    },
    {
      "buffer": 0,
      "byteLength": 34752,
      "byteOffset": 88824,
      "target": 34962
    },
    {
      "buffer": 0,
      "byteLength": 46336,
      "byteOffset": 123576,
      "target": 34962
    },
    {
      "buffer": 0,
      "byteLength": 23168,
      "byteOffset": 169912,
      "target": 34962
    },
    {
      "buffer": 0,
      "byteLength": 7440,
      "byteOffset": 193080,
      "target": 34963
    },
    {
      "buffer": 0,
      "byteLength": 7296,
      "byteOffset": 200520,
      "target": 34962
    },
    {
      "buffer": 0,
      "byteLength": 7296,
      "byteOffset": 207816,
      "target": 34962
    },
    {
      "buffer": 0,
      "byteLength": 9728,
      "byteOffset": 215112,
      "target": 34962
    },
    {
      "buffer": 0,
      "byteLength": 4864,
      "byteOffset": 224840,
      "target": 34962
    },
    {
      "buffer": 0,
      "byteLength": 12576,
      "byteOffset": 229704,
      "target": 34963
    },
    {
      "buffer": 0,
      "byteLength": 10416,
      "byteOffset": 242280,
      "target": 34962
    },
    {
      "buffer": 0,
      "byteLength": 10416,
      "byteOffset": 252696,
      "target": 34962
    },
    {
      "buffer": 0,
      "byteLength": 13888,
      "byteOffset": 263112,
      "target": 34962
    },
    {
      "buffer": 0,
      "byteLength": 6944,
      "byteOffset": 277000,
      "target": 34962
    },
    {
      "buffer": 0,
      "byteLength": 12576,
      "byteOffset": 283944,
      "target": 34963
    },
    {
      "buffer": 0,
      "byteLength": 10416,
      "byteOffset": 296520,
      "target": 34962
    },
    {
      "buffer": 0,
      "byteLength": 10416,
      "byteOffset": 306936,
      "target": 34962
    },
    {
      "buffer": 0,
      "byteLength": 13888,
      "byteOffset": 317352,
      "target": 34962
    },
    {
      "buffer": 0,
      "byteLength": 6944,
      "byteOffset": 331240,
      "target": 34962
    }
  ],
  "buffers": [
    {
      "byteLength": 338184,
      "uri": "PBR - Metallic Roughness Alpha-blend.bin"
    }
  ],
  "images": [
    {
      "uri": "APT_props_baseColor.png"
    },
    {
      "uri": "APT_props_occlusionRoughnessMetallic.png"
    },
    {
      "uri": "APT_props_normal.png"
    },
    {
      "uri": "APT_props_emissive.png"
    }
  ],
  "materials": [
    {
      "alphaMode": "OPAQUE",
      "emissiveFactor": [
        1.0,
        1.0,
        1.0
      ],
      "emissiveTexture": {
        "index": 3
      },
      "name": "APT_props",
      "normalTexture": {
        "index": 2
      },
      "occlusionTexture": {
        "index": 1
      },
      "pbrMetallicRoughness": {
        "baseColorTexture": {
          "index": 0
        },
        "metallicRoughnessTexture": {
          "index": 1
        }
      }
    }
  ],
  "meshes": [
    {
      "name": "Cabinet_1",
      "primitives": [
        {
          "attributes": {
            "NORMAL": 2,
            "POSITION": 1,
            "TANGENT": 3,
            "TEXCOORD_0": 4
          },
          "indices": 0,
          "material": 0,
          "mode": 4
        }
      ]
    },
    {
      "name": "Table",
      "primitives": [
        {
          "attributes": {
            "NORMAL": 7,
            "POSITION": 6,
            "TANGENT": 8,
            "TEXCOORD_0": 9
          },
          "indices": 5,
          "material": 0,
          "mode": 4
        }
      ]
    },
    {
      "name": "Chair",
      "primitives": [
        {
          "attributes": {
            "NORMAL": 12,
            "POSITION": 11,
            "TANGENT": 13,
            "TEXCOORD_0": 14
          },
          "indices": 10,
          "material": 0,
          "mode": 4
        }
      ]
    },
    {
      "name": "Chair1",
      "primitives": [
        {
          "attributes": {
            "NORMAL": 17,
            "POSITION": 16,
            "TANGENT": 18,
            "TEXCOORD_0": 19
          },
          "indices": 15,
          "material": 0,
          "mode": 4
        }
      ]
    }
  ],
  "nodes": [
    {
      "children": [
        1
      ],
      "name": "RootNode",
      "scale": [
        0.00999999977648258,
        0.00999999977648258,
        0.00999999977648258
      ]
    },
    {
      "children": [
        2
      ],
      "name": "ApartmentLayout"
    },
    {
      "children": [
        3,
        5,
        7,
        9
      ],
      "name": "APT_PROPS"
    },
    {
      "children": [
        4
      ],
      "name": "Cabinet_1",
      "rotation": [
        -0.707106828689575,
        0.0,
        0.0,
        0.707106709480286
      ],
      "scale": [
        100.0,
        100.0,
        100.0
      ],
      "translation": [
        158.089492797852,
        42.772289276123,
        -892.919372558594
      ]
    },
    {
      "mesh": 0,
      "name": "Cabinet_1"
    },
    {
      "children": [
        6
      ],
      "name": "Table",
      "rotation": [
        -0.707106828689575,
        0.0,
        0.0,
        0.707106709480286
      ],
      "scale": [
        100.0,
        100.0,
        100.0
      ],
      "translation": [
        105.695304870605,
        46.2456474304199,
        -349.522216796875
      ]
    },
    {
      "mesh": 1,
      "name": "Table"
    },
    {
      "children": [
        8
      ],
      "name": "Chair",
      "rotation": [
        0.183012783527374,
        0.683012664318085,
        0.683012723922729,
        -0.183012783527374
      ],
      "scale": [
        100.0,
        100.0,
        100.0
      ],
      "translation": [
        251.212753295898,
        81.0,
        -174.872024536133
      ]
    },
    {
      "mesh": 2,
      "name": "Chair"
    },
    {
      "children": [
        10
      ],
      "name": "Chair1",
      "rotation": [
        -0.0922958925366402,
        0.701057374477386,
        0.701057374477386,
        0.0922958925366402
      ],
      "scale": [
        100.000007629395,
        100.000007629395,
        100.0
      ],
      "translation": [
        -14.5214338302612,
        81.0,
        -160.931411743164
      ]
    },
    {
      "mesh": 3,
      "name": "Chair1"
    }
  ],
  "samplers": [
    {
      "magFilter": 9729,
      "minFilter": 9985,
      "wrapS": 10497,
      "wrapT": 10497
    }
  ],
  "scene": 0,
  "scenes": [
    {
      "name": "Scene",
      "nodes": [
        0
      ]
    }
  ],
  "textures": [
    {
      "sampler": 0,
      "source": 0
    },
    {
      "sampler": 0,
      "source": 1
    },
    {
      "sampler": 0,
      "source": 2
    },
    {
      "sampler": 0,
      "source": 3
    }
  ]
}